<?xml version="1.0" encoding="utf-8"?>
<svg viewBox="0 0 370.5 87.5" xmlns="http://www.w3.org/2000/svg">
    <g id="SvgjsG2441" featurekey="symbolFeature-0" transform="matrix(1.09375, 0, 0, 1.09375, -10.93750016298145, -10.937500162981436)" fill="#ffffff">
        <path xmlns="http://www.w3.org/2000/svg" d="M35,65.833c0-8.587,3.535-16.36,9.219-21.956c-3.063-1.406-6.458-2.21-10.052-2.21C20.82,41.667,10,52.487,10,65.833  C10,79.18,20.82,90,34.167,90c3.594,0,6.988-0.804,10.052-2.21C38.535,82.194,35,74.421,35,65.833z" style="fill: rgb(0, 0, 0);"/>
        <path xmlns="http://www.w3.org/2000/svg" d="M65.833,65c-8.587,0-16.36-3.535-21.956-9.222c-1.406,3.066-2.21,6.461-2.21,10.055C41.667,79.18,52.487,90,65.833,90  C79.18,90,90,79.18,90,65.833c0-3.594-0.804-6.988-2.21-10.055C82.194,61.465,74.421,65,65.833,65z" style="fill: rgb(0, 0, 0);"/>
        <path xmlns="http://www.w3.org/2000/svg" d="M65.833,10c-3.594,0-6.988,0.804-10.055,2.21C61.465,17.806,65,25.579,65,34.167c0,8.587-3.535,16.36-9.222,21.956  c3.066,1.406,6.461,2.21,10.055,2.21C79.18,58.333,90,47.513,90,34.167C90,20.82,79.18,10,65.833,10z" style="fill: rgb(0, 0, 0);"/>
        <path xmlns="http://www.w3.org/2000/svg" d="M34.167,35c8.587,0,16.36,3.535,21.956,9.219c1.406-3.063,2.21-6.458,2.21-10.052C58.333,20.82,47.513,10,34.167,10  C20.82,10,10,20.82,10,34.167c0,3.594,0.804,6.988,2.21,10.052C17.806,38.535,25.579,35,34.167,35z" style="fill: rgb(0, 0, 0);"/>
    </g>
    <g id="SvgjsG2442" featurekey="K5GtsI-0" transform="matrix(3.5939211845397945, 0, 0, 3.5939211845397945, 104.40607607969756, -2.5635249996710456)" fill="#ffffff">
        <path d="M13.18 20.02 l0 -10.16 l-4.56 6.08 l-0.52 0 l-4.46 -6.1 l0 10.18 l-2.64 0 l0 -14 l3.04 0 l4.38 6.02 l4.38 -6.02 l3.02 0 l0 14 l-2.64 0 z M28.740000000000002 17.4 l0 2.6 l-10.48 0 l0 -14 l10.48 0 l0 2.56 l-7.86 0 l0 3.22 l7.58 0 l0 2.46 l-7.58 0 l0 3.16 l7.86 0 z M41.22 17.4 l0 2.6 l-10.48 0 l0 -14 l10.48 0 l0 2.56 l-7.86 0 l0 3.22 l7.58 0 l0 2.46 l-7.58 0 l0 3.16 l7.86 0 z M47.7 20 l0 -11.6 l-4.44 0 l0 -2.4 l11.52 0 l0 2.4 l-4.44 0 l0 11.6 l-2.64 0 z M59.02 20 l-2.62 0 l0 -14 l2.62 0 l0 14 z M67.5 11.22 l3.5 -5.22 l2.9 0 l0 0.12 l-4.74 6.8 l4.88 7 l0 0.08 l-2.96 0 l-3.58 -5.26 l-3.58 5.26 l-2.96 0 l0 -0.08 l4.86 -7 l-4.72 -6.8 l0 -0.12 l2.9 0 z" style="fill: rgb(0, 0, 0);"/>
    </g>
</svg>